<?xml version="1.0" standalone="no"?>
<!DOCTYPE svg PUBLIC "-//W3C//DTD SVG 20010904//EN"
 "http://www.w3.org/TR/2001/REC-SVG-20010904/DTD/svg10.dtd">
<svg version="1.0" xmlns="http://www.w3.org/2000/svg"
 width="500.000000pt" height="500.000000pt" viewBox="0 0 500.000000 500.000000"
 preserveAspectRatio="xMidYMid meet">

<g transform="translate(0.000000,500.000000) scale(0.100000,-0.100000)"
fill="#000000" stroke="none">
<path d="M2825 2569 c-4 -5 -1 -8 6 -7 7 2 15 -5 17 -16 3 -12 0 -16 -8 -11
-9 6 -9 2 0 -16 19 -36 20 -36 20 8 0 40 -21 65 -35 42z"/>
<path d="M3060 2498 c0 -22 -3 -28 -9 -20 -6 11 -11 10 -25 -3 -9 -9 -14 -21
-11 -26 4 -5 1 -9 -4 -9 -6 0 -11 5 -11 10 0 6 -7 10 -15 10 -21 0 -31 -30
-14 -41 8 -5 9 -9 3 -9 -7 0 -11 -8 -10 -17 1 -17 -56 -37 -82 -28 -16 6 -44
-19 -34 -30 4 -5 2 -5 -4 -2 -6 3 -20 -3 -32 -13 -12 -11 -25 -20 -31 -20 -5
0 -11 -7 -15 -15 -3 -8 -12 -15 -21 -15 -8 0 -15 -4 -15 -10 0 -6 41 -10 104
-10 118 0 136 -4 136 -32 0 -29 68 -107 108 -124 19 -8 57 -14 85 -14 l50 0
-45 43 c-77 72 -88 104 -88 261 0 79 -4 137 -10 141 -6 4 -10 -7 -10 -27z"/>
</g>
</svg>
